<svg class="icon" viewBox="0 0 1024 1024" version="1.1" xmlns="http://www.w3.org/2000/svg" p-id="1983"><path d="M959.015385 39.384615H582.892308c-15.753846 0-31.507692 9.846154-31.507693 25.6v59.076923c0 15.753846 13.784615 33.476923 31.507693 33.476924h155.56923c17.723077 0 27.569231 19.692308 13.784616 31.507692l-334.769231 334.769231c-11.815385 11.815385-11.815385 29.538462 0 41.353846l41.353846 41.353846c11.815385 11.815385 29.538462 11.815385 41.353846 0l334.769231-334.769231c11.815385-11.815385 31.507692-3.938462 31.507692 13.784616v155.56923c0 15.753846 15.753846 33.476923 31.507693 33.476923h57.107692c15.753846 0 29.538462-17.723077 29.538462-33.476923v-374.153846c0-17.723077-9.846154-27.569231-25.6-27.569231zM714.830769 502.153846L647.876923 571.076923c-11.815385 11.815385-17.723077 25.6-17.723077 41.353846v224.492308c0 15.753846-13.784615 29.538462-29.538461 29.538461h-413.538462c-15.753846 0-29.538462-13.784615-29.538461-29.538461v-413.538462c0-15.753846 13.784615-29.538462 29.538461-29.538461H413.538462c15.753846 0 31.507692-5.907692 41.353846-17.723077l66.953846-66.953846c11.815385-11.815385 3.938462-33.476923-13.784616-33.476923H118.153846c-43.323077 0-78.769231 35.446154-78.769231 78.76923v551.384616c0 43.323077 35.446154 78.769231 78.769231 78.769231h551.384616c43.323077 0 78.769231-35.446154 78.76923-78.769231V515.938462c0-17.723077-21.661538-25.6-33.476923-13.784616z" p-id="1984"></path></svg>