<svg class="icon" viewBox="0 0 1024 1024" version="1.1" xmlns="http://www.w3.org/2000/svg" p-id="1899"><path d="M597.333333 170.666667h228.266667c8.533333 0 14.933333 2.133333 19.2 8.533333s8.533333 12.8 8.533333 19.2v228.266667c0 8.533333-2.133333 12.8-6.4 14.933333-4.266667 2.133333-8.533333 0-14.933333-6.4l-61.866667-61.866667-177.066666 177.066667c-6.4 6.4-12.8 8.533333-19.2 8.533333s-14.933333-2.133333-19.2-8.533333l-81.066667-81.066667c-6.4-6.4-8.533333-12.8-8.533333-19.2 0-8.533333 2.133333-14.933333 8.533333-19.2l177.066667-177.066666-61.866667-61.866667c-4.266667-4.266667-6.4-10.666667-6.4-14.933333 2.133333-4.266667 6.4-6.4 14.933333-6.4z m-166.4 170.666666h-89.6a58.282667 58.282667 0 0 0-57.6 57.6v283.733334a58.282667 58.282667 0 0 0 57.6 57.6h283.733334a58.282667 58.282667 0 0 0 57.6-57.6V599.466667l113.066666-113.066667v168.533333c0 61.866667-17.066667 110.933333-53.333333 147.2-36.266667 34.133333-83.2 53.333333-145.066667 53.333334h-228.266666c-61.866667 0-110.933333-17.066667-147.2-53.333334-34.133333-34.133333-53.333333-83.2-53.333334-147.2v-228.266666c0-61.866667 17.066667-110.933333 53.333334-147.2 34.133333-34.133333 83.2-53.333333 147.2-53.333334h170.666666l-108.8 115.2z" p-id="1900"></path></svg>